<svg xmlns="http://www.w3.org/2000/svg" width="27.944" height="23.952" viewBox="0 0 27.944 23.952">
  <g id="Symbols" transform="translate(-2 -4)">
    <g id="_32dp-Icon_Navigation_External-Link" data-name="32dp-Icon/Navigation/External-Link" transform="translate(2 4)">
      <path id="_-Color" data-name="🎨-Color" d="M2,24.958a3,3,0,0,0,2.994,2.994h5.988a1,1,0,0,0,0-2H4.994a.985.985,0,0,1-1-1V6.994a.985.985,0,0,1,1-1h5.988a1,1,0,0,0,0-2H4.994A3,3,0,0,0,2,6.994Zm7.984-8.982a.985.985,0,0,0,1,1H26.544l-4.3,4.3a.993.993,0,0,0,.717,1.684,1.042,1.042,0,0,0,.717-.281l5.988-5.988a1.042,1.042,0,0,0,.281-.717.968.968,0,0,0-.281-.686L23.644,9.271a.993.993,0,0,0-1.684.717.917.917,0,0,0,.281.717l4.3,4.273H10.982A1,1,0,0,0,9.984,15.976Z" transform="translate(-2 -4)" fill="#282d37" fill-rule="evenodd"/>
    </g>
  </g>
</svg>
