<svg xmlns="http://www.w3.org/2000/svg" width="26.347" height="23.952" viewBox="0 0 26.347 23.952">
  <g id="Group_202" data-name="Group 202" transform="translate(-1863.225 -26.39)">
    <g id="Symbols" transform="translate(1863.225 26.39)">
      <g id="_32dp-Icon_Navigation_More-Vertical" data-name="32dp-Icon/Navigation/More-Vertical">
        <path id="_-Color" data-name="🎨-Color" d="M14,8.4A2.4,2.4,0,1,0,16.4,6,2.4,2.4,0,0,0,14,8.4Zm0,9.581a2.4,2.4,0,1,0,2.4-2.4A2.4,2.4,0,0,0,14,17.976Zm0,9.581a2.4,2.4,0,1,0,2.4-2.4A2.4,2.4,0,0,0,14,27.557Z" transform="translate(-14 -6)" fill="#282d37" fill-rule="evenodd"/>
      </g>
    </g>
    <g id="Symbols-2" data-name="Symbols" transform="translate(1874.002 26.39)">
      <g id="_32dp-Icon_Navigation_More-Vertical-2" data-name="32dp-Icon/Navigation/More-Vertical" transform="translate(0)">
        <path id="_-Color-2" data-name="🎨-Color" d="M14,8.4A2.4,2.4,0,1,0,16.4,6,2.4,2.4,0,0,0,14,8.4Zm0,9.581a2.4,2.4,0,1,0,2.4-2.4A2.4,2.4,0,0,0,14,17.976Zm0,9.581a2.4,2.4,0,1,0,2.4-2.4A2.4,2.4,0,0,0,14,27.557Z" transform="translate(-14 -6)" fill="#282d37" fill-rule="evenodd"/>
      </g>
    </g>
    <g id="Symbols-3" data-name="Symbols" transform="translate(1884.781 26.39)">
      <g id="_32dp-Icon_Navigation_More-Vertical-3" data-name="32dp-Icon/Navigation/More-Vertical" transform="translate(0)">
        <path id="_-Color-3" data-name="🎨-Color" d="M14,8.4A2.4,2.4,0,1,0,16.4,6,2.4,2.4,0,0,0,14,8.4Zm0,9.581a2.4,2.4,0,1,0,2.4-2.4A2.4,2.4,0,0,0,14,17.976Zm0,9.581a2.4,2.4,0,1,0,2.4-2.4A2.4,2.4,0,0,0,14,27.557Z" transform="translate(-14 -6)" fill="#282d37" fill-rule="evenodd"/>
      </g>
    </g>
  </g>
</svg>
