<svg xmlns="http://www.w3.org/2000/svg" width="26.218" height="26.218" viewBox="0 0 26.218 26.218">
  <g id="Symbols" transform="translate(-2 -2)">
    <g id="_32dp-Icon_Action_Info-Circle" data-name="32dp-Icon/Action/Info-Circle" transform="translate(2 2)">
      <path id="_-Color" data-name="🎨-Color" d="M15.109,2A13.109,13.109,0,1,1,2,15.109,13.125,13.125,0,0,1,15.109,2Zm0,1.873A11.236,11.236,0,1,0,26.345,15.109,11.239,11.239,0,0,0,15.109,3.873Zm-.561,8.54a2.422,2.422,0,0,1,.558-.106.925.925,0,0,1,.939.929v6.555h1.873a.936.936,0,0,1,0,1.873H12.3a.936.936,0,0,1,0-1.873h1.873V14.407H12.534a.936.936,0,0,1,0-1.873h1.522Zm.415-4.707a1.4,1.4,0,0,1,1.4,1.4,1.387,1.387,0,0,1-1.4,1.4,1.4,1.4,0,0,1-1.4-1.4A1.424,1.424,0,0,1,14.963,7.706Z" transform="translate(-2 -2)" fill="#282d37" fill-rule="evenodd"/>
    </g>
  </g>
</svg>
