<svg xmlns="http://www.w3.org/2000/svg" width="27.012" height="20.329" viewBox="0 0 27.012 20.329">
  <g id="Symbols" transform="translate(-6 -9)">
    <g id="_32dp-Icon_Navigation_List" data-name="32dp-Icon/Navigation/List" transform="translate(6 9)">
      <path id="_-Color" data-name="🎨-Color" d="M14.1,29.329H31.661a1.456,1.456,0,0,0,0-2.9H14.1a1.456,1.456,0,0,0,0,2.9Zm-6.753,0H8.7a1.456,1.456,0,0,0,0-2.9H7.351a1.456,1.456,0,0,0,0,2.9Zm24.311-8.712a1.456,1.456,0,0,0,0-2.9H14.1a1.456,1.456,0,0,0,0,2.9Zm-22.96,0a1.456,1.456,0,0,0,0-2.9H7.351a1.456,1.456,0,0,0,0,2.9ZM31.661,11.9a1.386,1.386,0,0,0,1.351-1.452A1.386,1.386,0,0,0,31.661,9H14.1a1.386,1.386,0,0,0-1.351,1.452A1.386,1.386,0,0,0,14.1,11.9ZM8.7,11.9a1.386,1.386,0,0,0,1.351-1.452A1.386,1.386,0,0,0,8.7,9H7.351A1.386,1.386,0,0,0,6,10.452,1.386,1.386,0,0,0,7.351,11.9Z" transform="translate(-6 -9)" fill="#282d37" fill-rule="evenodd"/>
    </g>
  </g>
</svg>
