<svg xmlns="http://www.w3.org/2000/svg" width="26.787" height="26.787" viewBox="0 0 26.787 26.787">
  <g id="Symbols" transform="translate(-2 -2)">
    <g id="_32dp-Icon_Action_Print" data-name="32dp-Icon/Action/Print" transform="translate(2 2)">
      <path id="_-Color" data-name="🎨-Color" d="M21.134,2a1.927,1.927,0,0,1,1.913,1.913V5.827h2.87a2.87,2.87,0,0,1,2.87,2.87v9.567a2.871,2.871,0,0,1-2.87,2.87h-2.87v5.74a1.927,1.927,0,0,1-1.913,1.913H9.653A1.926,1.926,0,0,1,7.74,26.874v-5.74H4.87A2.871,2.871,0,0,1,2,18.264V8.7a2.871,2.871,0,0,1,2.87-2.87H7.74V3.913A1.926,1.926,0,0,1,9.653,2Zm0,15.307H9.653v9.567h11.48ZM25.917,7.74H4.87a.944.944,0,0,0-.957.957v9.567a.944.944,0,0,0,.957.957H7.74V17.307a1.926,1.926,0,0,1,1.913-1.913h11.48a1.927,1.927,0,0,1,1.913,1.913V19.22h2.87a.944.944,0,0,0,.957-.957V8.7A.944.944,0,0,0,25.917,7.74ZM21.134,3.913H9.653V5.827h11.48ZM7.74,10.61A.944.944,0,0,1,8.7,9.653h3.827a.957.957,0,1,1,0,1.913H8.7A.944.944,0,0,1,7.74,10.61ZM11.567,24a.944.944,0,0,1,.957-.957h5.74a.957.957,0,1,1,0,1.913h-5.74A.944.944,0,0,1,11.567,24Zm0-3.827a.944.944,0,0,1,.957-.957h5.74a.957.957,0,0,1,0,1.913h-5.74A.944.944,0,0,1,11.567,20.177Z" transform="translate(-2 -2)" fill="#282d37" fill-rule="evenodd"/>
    </g>
  </g>
</svg>
