<svg xmlns="http://www.w3.org/2000/svg" width="33.947" height="26.198" viewBox="0 0 33.947 26.198">
  <path id="Icon_awesome-ruler" data-name="Icon awesome-ruler" d="M31.717,8.67,27.745,1.909a1.606,1.606,0,0,0-2.17-.574L22.132,3.286,25.111,8.36a.387.387,0,0,1-.145.534l-.689.389a.4.4,0,0,1-.544-.145L20.755,4.069,18,5.631,19.393,8a.387.387,0,0,1-.145.534l-.689.389a.4.4,0,0,1-.544-.145l-1.392-2.36L13.87,7.976l2.984,5.074a.388.388,0,0,1-.145.534l-.689.389a.4.4,0,0,1-.544-.145L12.5,8.754,9.743,10.316l1.392,2.365a.387.387,0,0,1-.145.534L10.3,13.6a.4.4,0,0,1-.544-.145l-1.392-2.37L5.612,12.651l2.979,5.074a.388.388,0,0,1-.145.534l-.689.389a.4.4,0,0,1-.544-.145L4.18,13.459.792,15.4a1.552,1.552,0,0,0-.584,2.135L4.18,24.3a1.606,1.606,0,0,0,2.17.574L31.138,10.805A1.549,1.549,0,0,0,31.717,8.67Z" transform="translate(1.01 -0.004)" fill="none" stroke="#000" stroke-width="2"/>
</svg>
